<svg width="80" height="48" viewBox="0 0 80 48" fill="none" xmlns="http://www.w3.org/2000/svg">
<path fill-rule="evenodd" clip-rule="evenodd" d="M70.1 35L63.5 22.6L56.9 35H47L58 16.9L47 0H56.9L63.5 10.2L70.1 0H80L67.9 16.9L80 35H70.1ZM0 40V38H80V40H0ZM46 35L54 22.6V12L46 0V12.4H35V0H26V3.8C27.6 5.1 29 6.7 30 8.7C31.3 11.2 32 14.1 32 17.5C32 20.8 31.3 23.7 29.9 26.3C28.8 28.2 27.5 29.8 26 31.1V35H35V20.3H46V35ZM31 17.5C31 20.8 30.3 23.7 28.9 26.3C27.5 28.9 25.7 30.9 23.5 32.2C21.7 33.4 19.7 34.1 17.6 34.5C15.5 34.8 13.2 35 10.8 35H0V0H10.8C13.2 0 15.5 0.2 17.7 0.5C19.8 0.8 21.8 1.6 23.7 2.8C26 4.3 27.8 6.3 29.1 8.8C30.3 11.2 31 14.2 31 17.5ZM17.6 7.8C19.2 8.7 20.4 10 21.2 11.6C22 13.2 22.4 15.2 22.5 17.4C22.5 19.8 22.1 21.7 21.4 23.3C20.6 24.9 19.5 26.2 18.1 27.1C16.9 27.9 15.6 28.3 14.3 28.4C12.9 28.5 11.3 28.5 9.3 28.5H9.1V6.6H9.3C11.1 6.6 12.6 6.6 13.9 6.7C15.2 6.8 16.4 7.1 17.6 7.8ZM4 43V44H2V47H4V48H1V43H4ZM4 47V44H5V47H4ZM19 45H17V43H16V48H17V46H19V48H20V43H19V45ZM35 43V44H33V48H32V44H30V43H35ZM47 44H46V43H45V48H46V45H47V46H48V45H49V48H50V43H49V44H48V45H47V44ZM60 43H61V47H64V48H60V43ZM76 44H75V43H74V44H75V45H76V46H75V47H74V48H75V47H76V46H77V47H78V48H79V47H78V46H77V45H78V44H79V43H78V44H77V45H76V44Z" fill="#2095F3"/>
</svg>
