<svg xmlns="http://www.w3.org/2000/svg" width="22" height="22" viewBox="0 0 22 22">
  <path fill="#03A9F4" d="M18.7894737,20 L2.21052632,20 C0.8954305,20 2.22044605e-16,19.1859723 0,18 L0,3 C-1.11022302e-16,1.72311864 0.8954305,0.909090909 2.21052632,1 L4,1 L4,0 L6,0 L6,1 L15,1 L15,0 L17,0 L17,1 L18.7894737,1 C20.1045695,0.909090909 21,1.72311864 21,3 L21,18 C21,19.1859723 20.1045695,20 18.7894737,20 Z M20,3 C20,2.44771525 19.5522847,2 18.8823529,2 L17,2 L17,3 L15,3 L15,2 L6,2 L6,3 L4,3 L4,2 L2.11764706,2 C1.44771525,2 1,2.44771525 1,3 L1,5 L20,5 L20,3 Z M20,6 L1,6 L1,18.0714286 C1,18.6139598 1.44771525,19 2.11764706,19 L18.8823529,19 C19.5522847,19 20,18.6139598 20,18.0714286 L20,6 Z M18,17 L15,17 C14.4477153,17 14,16.5522847 14,16 L14,14 C14,13.4477153 14.4477153,13 15,13 L18,13 C18.5522847,13 19,13.4477153 19,14 L19,16 C19,16.5522847 18.5522847,17 18,17 Z M18,14 L15,14 L15,16 L18,16 L18,14 Z M18,12 L15,12 C14.4477153,12 14,11.5522847 14,11 L14,9 C14,8.44771525 14.4477153,8 15,8 L18,8 C18.5522847,8 19,8.44771525 19,9 L19,11 C19,11.5522847 18.5522847,12 18,12 Z M18,9 L15,9 L15,11 L18,11 L18,9 Z M12,17 L9,17 C8.44771525,17 8,16.5522847 8,16 L8,14 C8,13.4477153 8.44771525,13 9,13 L12,13 C12.5522847,13 13,13.4477153 13,14 L13,16 C13,16.5522847 12.5522847,17 12,17 Z M12,14 L9,14 L9,16 L12,16 L12,14 Z M12,12 L9,12 C8.44771525,12 8,11.5522847 8,11 L8,9 C8,8.44771525 8.44771525,8 9,8 L12,8 C12.5522847,8 13,8.44771525 13,9 L13,11 C13,11.5522847 12.5522847,12 12,12 Z M12,9 L9,9 L9,11 L12,11 L12,9 Z M6,17 L3,17 C2.44771525,17 2,16.5522847 2,16 L2,14 C2,13.4477153 2.44771525,13 3,13 L6,13 C6.55228475,13 7,13.4477153 7,14 L7,16 C7,16.5522847 6.55228475,17 6,17 Z M6,14 L3,14 L3,16 L6,16 L6,14 Z M6,12 L3,12 C2.44771525,12 2,11.5522847 2,11 L2,9 C2,8.44771525 2.44771525,8 3,8 L6,8 C6.55228475,8 7,8.44771525 7,9 L7,11 C7,11.5522847 6.55228475,12 6,12 Z M6,9 L3,9 L3,11 L6,11 L6,9 Z" transform="translate(0 1)"/>
</svg>
